<svg width="16" height="16" viewBox="0 0 16 16" fill="none" xmlns="http://www.w3.org/2000/svg">
<path d="M5.88123 10.1187L10.1187 5.875" stroke="black" stroke-width="0.5" stroke-linecap="round" stroke-linejoin="round"/>
<path d="M9.06249 11.1812L7.29374 12.95C7.01509 13.2286 6.68429 13.4497 6.32022 13.6005C5.95614 13.7513 5.56593 13.8289 5.17187 13.8289C4.37601 13.8289 3.61275 13.5128 3.04999 12.95C2.48723 12.3872 2.17108 11.624 2.17108 10.8281C2.17108 10.0323 2.48723 9.26901 3.04999 8.70625L4.81874 6.9375" stroke="black" stroke-width="0.5" stroke-linecap="round" stroke-linejoin="round"/>
<path d="M11.1812 9.06255L12.95 7.2938C13.5128 6.73105 13.8289 5.96778 13.8289 5.17193C13.8289 4.37607 13.5128 3.61281 12.95 3.05005C12.3872 2.4873 11.624 2.17114 10.8281 2.17114C10.0323 2.17114 9.26901 2.4873 8.70625 3.05005L6.9375 4.8188" stroke="black" stroke-width="0.5" stroke-linecap="round" stroke-linejoin="round"/>
</svg>
