<svg width="15" height="16" viewBox="0 0 15 16" fill="none" xmlns="http://www.w3.org/2000/svg">
<path d="M5.97656 1.61072H1.99219C1.66858 1.61072 1.40625 1.87305 1.40625 2.19666V6.18103C1.40625 6.50463 1.66858 6.76697 1.99219 6.76697H5.97656C6.30017 6.76697 6.5625 6.50463 6.5625 6.18103V2.19666C6.5625 1.87305 6.30017 1.61072 5.97656 1.61072Z" stroke="black" stroke-width="0.5" stroke-linecap="round" stroke-linejoin="round"/>
<path d="M13.1328 1.61072H9.14844C8.82483 1.61072 8.5625 1.87305 8.5625 2.19666V6.18103C8.5625 6.50463 8.82483 6.76697 9.14844 6.76697H13.1328C13.4564 6.76697 13.7188 6.50463 13.7188 6.18103V2.19666C13.7188 1.87305 13.4564 1.61072 13.1328 1.61072Z" stroke="black" stroke-width="0.5" stroke-linecap="round" stroke-linejoin="round"/>
<path d="M5.97656 8.76697H1.99219C1.66858 8.76697 1.40625 9.0293 1.40625 9.35291V13.3373C1.40625 13.6609 1.66858 13.9232 1.99219 13.9232H5.97656C6.30017 13.9232 6.5625 13.6609 6.5625 13.3373V9.35291C6.5625 9.0293 6.30017 8.76697 5.97656 8.76697Z" stroke="black" stroke-width="0.5" stroke-linecap="round" stroke-linejoin="round"/>
<path d="M13.1328 8.76697H9.14844C8.82483 8.76697 8.5625 9.0293 8.5625 9.35291V13.3373C8.5625 13.6609 8.82483 13.9232 9.14844 13.9232H13.1328C13.4564 13.9232 13.7188 13.6609 13.7188 13.3373V9.35291C13.7188 9.0293 13.4564 8.76697 13.1328 8.76697Z" stroke="black" stroke-width="0.5" stroke-linecap="round" stroke-linejoin="round"/>
</svg>
