<svg width="14" height="14" viewBox="0 0 14 14" fill="none" xmlns="http://www.w3.org/2000/svg">
<path d="M10.2812 2.625C10.7645 2.625 11.1562 2.23325 11.1562 1.75C11.1562 1.26675 10.7645 0.875 10.2812 0.875C9.798 0.875 9.40625 1.26675 9.40625 1.75C9.40625 2.23325 9.798 2.625 10.2812 2.625Z" stroke="black" stroke-width="0.5" stroke-linecap="round" stroke-linejoin="round"/>
<path d="M8.80469 9.625C8.24678 9.91321 7.62796 10.0636 7 10.0636C6.37204 10.0636 5.75322 9.91321 5.19531 9.625" stroke="black" stroke-width="0.5" stroke-linecap="round" stroke-linejoin="round"/>
<path d="M7 3.9375L7.4375 1.3125L9.41719 1.61875" stroke="black" stroke-width="0.5" stroke-linecap="round" stroke-linejoin="round"/>
<path d="M3.24843 4.91641C4.24921 4.30391 5.56171 3.9375 6.99999 3.9375C8.43827 3.9375 9.75077 4.30391 10.7516 4.91641C10.8663 4.75889 11.0148 4.62892 11.186 4.53592C11.3573 4.44292 11.5472 4.38924 11.7418 4.37877C11.9364 4.3683 12.1309 4.4013 12.3112 4.47538C12.4914 4.54946 12.653 4.66276 12.784 4.80704C12.915 4.95133 13.0122 5.12299 13.0686 5.30955C13.125 5.49611 13.1392 5.69289 13.11 5.8856C13.0809 6.07831 13.0092 6.26211 12.9002 6.42365C12.7911 6.5852 12.6475 6.72043 12.4797 6.81953V6.81953C12.6172 7.15441 12.6878 7.51298 12.6875 7.875C12.6875 10.0516 10.1391 11.8125 6.99999 11.8125C3.86093 11.8125 1.31249 10.0516 1.31249 7.875C1.31219 7.51298 1.38279 7.15441 1.5203 6.81953V6.81953C1.35248 6.72043 1.20884 6.5852 1.0998 6.42365C0.990763 6.26211 0.919073 6.07831 0.889934 5.8856C0.860796 5.69289 0.874941 5.49611 0.931343 5.30955C0.987744 5.12299 1.08499 4.95133 1.21601 4.80704C1.34703 4.66276 1.50854 4.54946 1.68881 4.47538C1.86908 4.4013 2.06359 4.3683 2.2582 4.37877C2.45282 4.38924 2.64266 4.44292 2.81395 4.53592C2.98523 4.62892 3.13365 4.75889 3.24843 4.91641V4.91641Z" stroke="black" stroke-width="0.5" stroke-linecap="round" stroke-linejoin="round"/>
<path d="M4.8125 8.09375C5.29575 8.09375 5.6875 7.702 5.6875 7.21875C5.6875 6.7355 5.29575 6.34375 4.8125 6.34375C4.32925 6.34375 3.9375 6.7355 3.9375 7.21875C3.9375 7.702 4.32925 8.09375 4.8125 8.09375Z" fill="black"/>
<path d="M9.1875 8.09375C9.67075 8.09375 10.0625 7.702 10.0625 7.21875C10.0625 6.7355 9.67075 6.34375 9.1875 6.34375C8.70425 6.34375 8.3125 6.7355 8.3125 7.21875C8.3125 7.702 8.70425 8.09375 9.1875 8.09375Z" fill="black"/>
</svg>
