<svg width="14" height="14" viewBox="0 0 14 14" fill="none" xmlns="http://www.w3.org/2000/svg">
<path d="M6.92043 2.625C6.07088 2.625 5.2404 2.87692 4.53402 3.34891C3.82764 3.8209 3.27708 4.49175 2.95197 5.27664C2.62686 6.06153 2.5418 6.92519 2.70754 7.75843C2.87328 8.59166 3.28238 9.35703 3.8831 9.95776C4.48383 10.5585 5.2492 10.9676 6.08243 11.1333C6.91567 11.2991 7.77933 11.214 8.56422 10.8889C9.34911 10.5638 10.02 10.0132 10.492 9.30684C10.9639 8.60046 11.2159 7.76998 11.2159 6.92043C11.2158 5.78123 10.7632 4.68872 9.95768 3.88318C9.15214 3.07765 8.05963 2.62507 6.92043 2.625V2.625Z" stroke="black" stroke-opacity="0.5" stroke-width="0.5" stroke-miterlimit="10"/>
<path d="M10.1251 10.1251L13.125 13.125" stroke="black" stroke-opacity="0.5" stroke-width="0.5" stroke-miterlimit="10" stroke-linecap="round"/>
</svg>
