<svg width="499" height="499" viewBox="0 0 499 499" fill="none" xmlns="http://www.w3.org/2000/svg">
<path d="M248.631 488.396L248.481 488.314C188.035 453.954 138.969 318.779 139.255 186.983V186.506H139.705C262.832 169.946 412.142 184.393 472.56 218.712L472.819 218.862V219.162C472.574 351.012 372.031 471.795 248.808 488.368L248.631 488.396ZM140.332 187.433C140.209 318.642 188.852 453.041 248.889 487.278C371.553 470.691 471.457 350.589 471.838 219.38C411.46 185.347 262.996 171.009 140.332 187.433Z" fill="#D0D9F0"/>
<path d="M361.127 440.543C330.788 423.302 255.69 416.01 193.745 424.379L193.608 423.37C255.745 415.015 331.128 422.321 361.631 439.643L361.127 440.543Z" fill="#D0D9F0"/>
<path d="M441.321 344.074C389.325 314.54 260.692 302.11 154.574 316.38L154.438 315.371C260.746 301.074 389.666 313.558 441.826 343.189L441.321 344.074Z" fill="#D0D9F0"/>
<path d="M248.93 488.341L248.535 487.401C324.151 455.876 385.864 323.303 386.11 191.862H387.132C386.886 323.685 324.887 456.68 248.93 488.341Z" fill="#D0D9F0"/>
<path d="M249.23 488L248.235 487.741C258.239 449.825 266.567 311.923 266.812 180.318H267.834C267.589 311.991 259.248 450.015 249.23 488Z" fill="#D0D9F0"/>
<path d="M220.745 490.276C173.969 490.276 130.3 474.194 95.5319 443.732C73.3848 424.219 55.8764 400.006 44.2856 372.86C31.8147 344.238 25.5044 312.741 25.5316 279.376C6.83218 268.677 -1.83608 256.765 0.453652 244.908C5.4011 219.775 58.7054 197.409 139.705 186.506L140.277 186.424V187.01C140.032 318.479 188.797 453.259 248.985 487.455L250.347 488.205L248.848 488.396C239.533 489.648 230.144 490.277 220.745 490.276V490.276ZM139.241 187.569C59.0189 198.472 6.24612 220.484 1.46222 245.166C-0.759362 256.615 7.82712 268.214 26.2949 278.695L26.5538 278.845V279.185C26.4857 312.523 32.7688 343.938 45.2124 372.56C56.7627 399.543 74.186 423.611 96.2133 443.01C137.251 478.964 190.815 494.801 247.172 487.591C187.394 452.06 139.159 318.233 139.255 187.569H139.241Z" fill="#D0D9F0"/>
<path d="M136.011 470.8C126.389 465.348 121.932 459.201 123.118 453.082C125.599 440.27 152.585 428.89 193.554 423.384L193.691 424.392C153.171 429.844 126.525 440.911 124.181 453.286C123.077 458.942 127.37 464.694 136.57 469.928L136.011 470.8Z" fill="#D0D9F0"/>
<path d="M56.0884 395.88C39.7332 386.612 32.1826 376.253 34.1861 365.895C38.4112 344.088 84.4783 324.748 154.438 315.344L154.574 316.352C85.0644 325.702 39.3244 344.756 35.181 366.086C33.2729 375.94 40.6328 385.93 56.5927 394.966L56.0884 395.88Z" fill="#D0D9F0"/>
<path d="M248.644 488.368C134.158 467.079 41.3421 342.534 41.5874 210.616H42.6096C42.3643 342.017 134.867 466.166 248.821 487.36L248.644 488.368Z" fill="#D0D9F0"/>
<path d="M248.726 488.382C111.71 485.356 0.535351 375.586 0.780679 243.667H1.80288C1.55755 375.013 112.337 484.334 248.739 487.346L248.726 488.382Z" fill="#D0D9F0"/>
<path d="M276.325 496.328C266.561 496.134 257.016 493.4 248.63 488.395C191.496 496.041 137.142 480.218 95.5457 443.732C73.3987 424.219 55.8902 400.005 44.2994 372.86C31.7877 344.115 25.4773 312.55 25.5455 279.076V278.204L26.3087 278.626C86.5504 312.863 235.587 327.256 358.51 310.723L359.096 310.642V311.228C358.933 400.227 336.24 468.633 299.89 489.772C292.764 494.028 284.626 496.292 276.325 496.328ZM248.835 487.332L248.985 487.428C266.703 497.513 283.712 498.031 299.413 488.927C335.381 468.047 357.856 400.227 358.115 311.882C235.614 328.237 87.409 313.967 26.6086 280.017C26.6086 313.027 32.9326 344.143 45.2671 372.519C56.8174 399.502 74.2407 423.57 96.2681 442.969C137.674 479.25 191.81 495.019 248.712 487.36L248.835 487.332Z" fill="#D0D9F0"/>
<path d="M249.802 490.535C203.081 490.535 157.954 483.271 136.011 470.8L136.515 469.914C166.854 487.155 241.952 494.447 303.897 486.065L304.033 487.087C286.052 489.428 267.935 490.58 249.802 490.535V490.535Z" fill="#D0D9F0"/>
<path d="M250.648 429.626C170.739 429.626 93.5832 417.182 56.0889 395.88L56.5931 394.994C108.589 424.542 237.209 436.959 343.341 422.689L343.463 423.697C312.689 427.717 281.683 429.698 250.648 429.626V429.626Z" fill="#D0D9F0"/>
<path d="M216.656 495.169C202.127 495.129 187.946 490.717 175.959 482.508C135.248 455.317 111.042 389.488 111.192 306.417H112.214C112.064 389.147 136.107 454.649 176.531 481.649C198.079 496.055 222.98 498.004 248.508 487.401L248.903 488.341C238.712 492.731 227.751 495.052 216.656 495.169Z" fill="#D0D9F0"/>
<path d="M243.737 498.127H243.505C234.306 496.927 230.353 406.81 230.517 317.961H231.539C231.321 434.491 237.468 496.287 243.642 497.091C244.296 497.214 245.959 496.41 248.235 487.741L249.23 488C247.417 494.883 245.659 498.127 243.737 498.127Z" fill="#D0D9F0"/>
<path d="M276.325 496.328C267.248 496.328 257.871 493.602 248.48 488.314L247.117 487.564L248.63 487.36C275.387 483.663 301.284 475.28 325.131 462.595C345.794 430.185 357.91 376.267 358.033 311.31V310.86H358.469C403.159 304.849 439.373 295.377 463.578 283.901C468.942 262.751 471.689 241.022 471.756 219.203V218.33L472.519 218.753C491.396 229.479 500.146 241.459 497.842 253.371C495.675 264.561 483.94 275.178 464.464 284.542C444.974 361.316 392.842 428.059 325.827 463.454C318.249 475.284 309.471 484.252 299.849 489.881C292.724 494.092 284.601 496.318 276.325 496.328V496.328ZM250.32 488.15C267.602 497.527 284.107 497.786 299.386 488.913C308.531 483.612 316.804 475.284 324.055 464.313C301 476.37 276.069 484.435 250.32 488.164V488.15ZM359.096 311.732C358.919 375.681 347.116 428.944 326.958 461.655C392.733 426.314 443.884 360.593 463.251 285.032C439.032 296.413 403.173 305.79 359.096 311.746V311.732ZM472.805 220.007C472.672 241.331 469.986 262.562 464.805 283.247C483.532 274.183 494.789 263.893 496.875 253.099C499.069 241.827 490.742 230.392 472.805 220.02V220.007Z" fill="#D0D9F0"/>
<path d="M304.034 487.087L303.897 486.065C344.417 480.613 371.076 469.56 373.475 457.185C374.566 451.528 370.272 445.777 361.072 440.543L361.577 439.644C371.199 445.095 375.656 451.242 374.47 457.362C372.03 470.187 345.003 481.567 304.034 487.087Z" fill="#D0D9F0"/>
<path d="M343.409 423.656L343.286 422.648C412.796 413.298 458.522 394.244 462.665 372.914C464.574 363.06 457.214 353.07 441.267 344.034L441.772 343.148C458.127 352.429 465.664 362.788 463.674 373.132C459.503 394.926 413.423 414.293 343.409 423.656Z" fill="#D0D9F0"/>
<path d="M281.681 491.462C270.597 491.447 259.538 490.412 248.644 488.368L248.821 487.36C299.072 496.709 347.565 484.634 385.373 453.286C429.968 416.283 455.619 355.946 455.755 287.717H456.777C456.641 356.245 430.881 416.882 386.027 453.995C356.752 478.399 319.793 491.669 281.681 491.462Z" fill="#D0D9F0"/>
<path d="M254.573 488.436C252.624 488.436 250.675 488.436 248.726 488.436V487.414C316.532 488.9 379.799 464.34 427.011 418.232C471.729 374.618 496.425 316.489 496.521 254.68H497.543C497.434 316.775 472.628 375.122 427.72 418.981C381.693 463.876 320.389 488.436 254.573 488.436Z" fill="#D0D9F0"/>
<path d="M472.806 220.007L472.042 219.584C411.801 185.347 262.778 170.955 139.841 187.487L139.255 187.569V186.983C139.418 97.9697 162.111 29.564 198.474 8.43858C214.203 -0.693076 231.921 -0.202421 249.721 9.80151C306.841 2.16908 361.209 17.9791 402.805 54.4648C424.948 73.9815 442.456 98.1942 454.052 125.337C466.563 154.082 472.874 185.634 472.819 219.121L472.806 220.007ZM247.213 179.609C339.238 179.609 428.088 193.852 471.797 218.262C471.797 185.238 465.459 154.123 453.125 125.76C441.575 98.7723 424.151 74.7002 402.124 55.2962C360.718 19.0149 306.609 3.25944 249.693 10.9055H249.516L249.366 10.8237C231.648 0.724374 214.639 0.220088 198.938 9.31085C163.024 30.2183 140.55 98.0378 140.332 186.397C175.772 181.796 211.476 179.528 247.213 179.609V179.609Z" fill="#D0D9F0"/>
<path d="M441.772 103.285C389.748 73.7367 261.128 61.3204 155.024 75.5903L154.888 74.5681C261.197 60.271 390.103 72.7554 442.276 102.386L441.772 103.285Z" fill="#D0D9F0"/>
<path d="M361.836 28.4056C331.497 11.1645 256.413 3.87279 194.454 12.2548L194.317 11.2463C256.454 2.89149 331.837 10.1832 362.34 27.5197L361.836 28.4056Z" fill="#D0D9F0"/>
<path d="M387.132 191.862H386.109C386.259 109.132 362.217 43.6159 321.793 16.6162C300.245 2.20998 275.357 0.260989 249.816 10.8782L249.421 9.92419C275.317 -0.856612 300.504 1.17416 322.365 15.7575C363.076 42.9617 387.282 108.819 387.132 191.862Z" fill="#D0D9F0"/>
<path d="M267.834 180.318H266.812C267.085 63.8418 260.883 1.97823 254.709 1.14684C254.096 1.05143 252.406 1.81468 250.116 10.4966L249.121 10.2376C251.016 3.0822 252.856 -0.120688 254.845 0.12464C264.045 1.35128 267.998 91.5093 267.834 180.318Z" fill="#D0D9F0"/>
<path d="M26.5677 280.017L25.8044 279.594C6.91415 268.868 -1.83588 256.888 0.467473 244.976C2.64817 233.786 14.3694 223.169 33.8457 213.805C53.3357 137.018 105.468 70.2749 172.497 34.8795C180.075 23.0493 188.852 14.0812 198.474 8.45227C214.244 -0.706637 232.016 -0.188725 249.871 9.9515L251.234 10.7011L249.734 10.9056C222.958 14.5956 197.043 22.9788 173.178 35.6701C152.516 68.0806 140.468 121.998 140.277 186.956V187.405H139.841C95.1505 193.416 58.9509 202.888 34.7453 214.364C29.3811 235.514 26.6347 257.243 26.5677 279.063V280.017ZM33.5459 215.018C14.8328 224.082 3.56133 234.372 1.47604 245.167C-0.718282 256.452 7.60925 267.887 25.5455 278.259C25.6786 256.935 28.3645 235.704 33.5459 215.018V215.018ZM171.407 36.5832C105.618 72.0195 54.4669 137.672 35.0451 213.247C59.3189 201.866 95.1777 192.489 139.255 186.533C139.432 122.571 151.235 69.2936 171.407 36.5832ZM222.108 2.87788C213.946 2.90683 205.942 5.13372 198.938 9.32455C189.793 14.64 181.52 22.9539 174.269 33.8573C197.334 21.8429 222.263 13.8113 248.003 10.1014C239.135 5.29481 230.503 2.88696 222.108 2.87788Z" fill="#D0D9F0"/>
<path d="M56.5244 155.158C40.1692 145.877 32.6322 135.518 34.6357 125.174C38.8472 103.367 84.928 84.0268 154.887 74.6226L155.024 75.6448C85.514 84.9809 39.774 104.048 35.6307 125.378C33.7226 135.232 41.0824 145.209 57.0287 154.245L56.5244 155.158Z" fill="#D0D9F0"/>
<path d="M136.774 58.6217C127.152 53.1699 122.695 47.0231 123.881 40.9035C126.361 28.0919 153.361 16.7115 194.317 11.2052L194.453 12.2138C153.933 17.6655 127.288 28.7325 124.944 41.0943C123.84 46.7505 128.133 52.5157 137.333 57.7494L136.774 58.6217Z" fill="#D0D9F0"/>
<path d="M42.6091 210.616H41.5869C41.7096 142.074 67.4827 81.4373 112.337 44.2564C150.376 12.6909 199.169 0.492657 249.707 9.8969L249.53 10.9055C199.278 1.55575 150.785 13.6313 112.977 44.9788C68.3822 82.037 42.7318 142.388 42.6091 210.616Z" fill="#D0D9F0"/>
<path d="M1.80247 243.749H0.780273C0.902937 181.654 25.6947 123.293 70.617 79.4339C118.033 33.0941 181.601 8.46594 249.625 9.92428V10.9465C181.86 9.44725 118.565 34.0209 71.353 80.129C26.6079 123.811 1.92514 181.845 1.80247 243.749Z" fill="#D0D9F0"/>
<path d="M251.138 318.71C158.581 318.71 69.2271 304.263 25.8449 279.594L25.5859 279.444V279.185C25.8449 147.253 126.279 26.4701 249.557 9.89685H249.72L249.87 9.97863C310.344 44.3382 359.341 179.528 359.096 311.323V311.773H358.646C323.002 316.455 287.088 318.773 251.138 318.71V318.71ZM26.5673 278.845C86.9043 312.918 235.396 327.27 358.074 310.846C358.21 179.637 309.567 45.2241 249.516 11.0008C126.906 27.5196 26.9489 147.621 26.5673 278.845Z" fill="#D0D9F0"/>
<path d="M251.097 188.823C171.188 188.823 94.0323 176.393 56.5244 155.09L57.0287 154.191C108.984 183.78 237.658 196.169 343.776 181.885L343.913 182.908C313.138 186.923 282.132 188.899 251.097 188.823V188.823Z" fill="#D0D9F0"/>
<path d="M250.566 78.357C203.844 78.357 158.718 71.079 136.774 58.6217L137.279 57.7358C167.631 74.9633 242.715 82.2686 304.674 73.8866L304.81 74.8952C286.825 77.247 268.704 78.4035 250.566 78.357V78.357Z" fill="#D0D9F0"/>
<path d="M112.242 306.444H111.22C111.465 174.621 173.465 41.6124 249.421 9.95142L249.816 10.9055C174.201 42.3892 112.487 174.962 112.242 306.444Z" fill="#D0D9F0"/>
<path d="M231.539 317.961H230.517C230.762 186.288 239.117 48.2635 249.121 10.2786L250.116 10.5375C240.112 48.4407 231.784 186.356 231.539 317.961Z" fill="#D0D9F0"/>
<path d="M358.073 311.896V311.31C358.319 179.828 309.553 45.047 249.366 10.8647L248.003 10.1151L249.516 9.91063C306.759 2.22368 361.126 18.0882 402.764 54.5467C424.907 74.0633 442.415 98.2761 454.01 125.419C466.481 154.041 472.792 185.538 472.778 218.903C491.477 229.588 500.146 241.514 497.842 253.371C492.949 278.572 439.604 300.979 358.605 311.869L358.073 311.896ZM251.179 10.6875C310.957 46.1238 359.191 180.018 359.096 310.683C439.318 299.779 492.091 277.768 496.875 253.085C499.096 241.637 490.51 230.038 472.042 219.557L471.797 219.407V219.107C471.797 185.77 465.568 154.354 453.124 125.733C441.574 98.7452 424.151 74.6731 402.123 55.269C361.126 19.3421 307.536 3.5321 251.179 10.6875Z" fill="#D0D9F0"/>
<path d="M343.913 182.908L343.776 181.885C413.286 172.549 459.026 153.482 463.169 132.152C465.077 122.312 457.718 112.321 441.771 103.285L442.276 102.385C458.631 111.667 466.168 122.025 464.164 132.37C459.953 154.122 413.872 173.503 343.913 182.908Z" fill="#D0D9F0"/>
<path d="M304.81 74.8952L304.674 73.8866C345.18 68.4349 371.839 57.3678 374.183 44.9924C375.274 39.3362 370.994 33.5847 361.781 28.351L362.285 27.4651C371.907 32.9168 376.378 39.0637 375.178 45.1832C372.752 58.0084 345.766 69.3889 304.81 74.8952Z" fill="#D0D9F0"/>
<path d="M456.777 287.663H455.755C456 156.262 363.484 32.099 249.529 10.9054L249.706 9.89685C364.125 31.1314 457.022 155.785 456.777 287.663Z" fill="#D0D9F0"/>
<path d="M497.57 254.653H496.548C496.793 123.293 386.014 13.9721 249.611 10.9601V9.93787C386.586 12.9091 497.815 122.693 497.57 254.653Z" fill="#D0D9F0"/>
<path d="M249.216 498.195C237.106 498.191 225.011 497.303 213.03 495.537C202.413 493.984 194.085 492.007 190.528 491.162C180.674 488.832 171.175 485.629 171.093 485.588C162.483 482.742 154.038 479.421 145.797 475.638C139.977 473.049 132.167 469.069 126.484 465.757C121.7 463.031 116.262 459.788 112.296 457.048C105.113 452.101 96.7583 445.94 91.0068 441.333C82.4339 434.519 71.9257 423.792 64.7703 416.364C59.2797 410.599 54.2059 404.45 49.5872 397.965L47.243 394.626C43.8493 389.774 40.0058 384.267 37.1709 379.756C33.5319 373.964 29.3886 366.236 27.7667 363.183C24.591 357.159 20.952 349.117 18.6895 343.584C17.1767 339.931 15.5957 335.406 14.0692 331.099C13.3605 329.082 12.7062 327.133 12.0248 325.375C9.64051 318.569 7.73234 311.606 6.31408 304.536C3.67048 291.478 1.7639 278.282 0.6034 265.011C-0.118955 254.666 -0.405175 239.606 0.971387 228.348C1.20309 226.426 1.42116 224.259 1.63923 222.119C2.17078 217.008 2.75684 211.216 3.72452 206.691C4.11977 204.864 4.52864 202.834 4.95115 200.735C5.87794 196.101 6.832 191.317 7.8542 187.392C9.55794 180.429 11.6372 173.563 14.0828 166.825C14.7234 165.203 15.4457 163.404 16.1136 161.537C17.79 157.135 19.5345 152.582 21.1837 148.875C23.9096 142.756 27.7258 135.028 30.7242 129.671C33.7227 124.315 37.5389 117.937 40.4556 113.453C44.3808 107.334 48.616 101.421 53.1445 95.7344C60.8213 86.2919 69.0113 77.2784 77.6773 68.7347C82.175 64.496 88.6489 58.8534 94.1551 54.383C98.353 50.962 103.846 46.8869 107.784 44.2155C113.236 40.522 121.073 35.6563 127.124 32.099C130.886 29.9047 136.052 27.1789 139.991 25.2844C144.257 23.2809 149.136 21.0184 152.884 19.4101C155.787 18.1835 159.699 16.6843 162.738 15.5394L163.787 15.1441C170.711 12.5137 179.597 9.965 182.16 9.25628C186.126 8.1523 189.083 7.37543 191.21 6.89841C195.694 5.90347 202.917 4.36335 208.533 3.35478C212.294 2.67331 221.33 1.40578 228.799 0.833352C245.562 -0.542722 262.422 -0.213932 279.119 1.81467C290.826 3.24575 299.563 5.15385 299.563 5.16748C305.192 6.435 311.747 8.02964 316.259 9.25628C319.966 10.2648 324.709 11.7913 327.162 12.6091C330.951 13.863 336.021 15.703 339.756 17.1749C343.981 18.8377 349.528 21.2637 352.458 22.6267C356.22 24.3031 360.636 26.5519 364.725 28.719C367.083 29.932 369.427 31.1995 371.73 32.5079L372.48 32.9713C381.284 38.4231 392.229 45.0878 399.997 51.2074C406.09 56.0049 413.136 61.92 417.961 66.2814C422.186 70.1113 427.406 75.2904 430.963 79.202C436.047 84.79 441.867 91.5775 445.751 96.5113C448.913 100.518 453.234 106.515 456.75 111.79C460.266 117.064 464.573 124.247 468.021 130.489C470.393 134.796 473.051 140.384 475.395 145.304L476.512 147.662C479.334 153.55 482.4 161.809 484.458 167.697C485.821 171.459 487.184 176.079 488.411 180.55C489.011 182.608 489.583 184.639 490.128 186.383C492.166 193.334 493.683 200.427 494.667 207.604C494.898 209.444 495.185 211.461 495.484 213.56C496.152 218.358 496.847 223.305 497.188 227.435C497.733 234.072 498.115 242.958 498.129 249.541C497.904 262.993 496.793 276.415 494.803 289.721C493.643 297.738 491.935 305.666 489.692 313.449C489.256 314.894 488.779 316.475 488.329 318.111C486.966 322.745 485.399 327.992 483.94 332.081C481.643 338.784 478.986 345.358 475.981 351.775L474.25 355.632C472.11 360.034 469.684 365.023 467.558 368.866C464.341 374.645 459.912 381.923 456.545 386.966C449.116 398.106 440.803 408.63 431.686 418.436C429.955 420.276 423.903 426.614 418.86 431.275C413.504 436.182 406.976 441.756 402.219 445.477C398.498 448.366 392.951 452.509 388.521 455.426C382.565 459.351 374.51 464.19 368.963 467.393C359.812 472.395 350.368 476.842 340.683 480.709C335.667 482.617 328.266 485.302 322.596 487.06C317.472 488.641 310.262 490.576 304.66 491.871C286.478 496.069 267.877 498.191 249.216 498.195ZM127.002 464.871C132.699 468.17 140.413 472.122 146.219 474.698C154.431 478.469 162.844 481.786 171.42 484.634C171.515 484.634 180.96 487.85 190.746 490.167C194.303 491.012 202.604 492.975 213.18 494.529C243.58 499.029 274.555 497.786 304.497 490.862C310.071 489.581 317.24 487.66 322.337 486.079C327.994 484.32 335.367 481.663 340.383 479.755C349.99 475.901 359.361 471.482 368.445 466.52C373.993 463.304 382.075 458.493 387.963 454.581C392.365 451.678 397.885 447.548 401.592 444.659C406.335 440.965 412.85 435.405 418.193 430.512C421.573 427.418 426.37 422.634 430.95 417.741C440.03 407.971 448.311 397.488 455.714 386.394C459.067 381.351 463.469 374.127 466.618 368.348C468.744 364.532 471.156 359.557 473.282 355.169L475.163 351.312C478.143 344.923 480.782 338.381 483.068 331.713C484.526 327.624 486.08 322.417 487.443 317.811C487.934 316.175 488.397 314.594 488.806 313.136C491.032 305.405 492.731 297.532 493.89 289.571C495.873 276.315 496.98 262.943 497.202 249.541C497.202 242.958 496.82 234.113 496.275 227.503C495.934 223.414 495.239 218.467 494.571 213.696C494.271 211.584 493.985 209.607 493.754 207.713C492.771 200.601 491.264 193.572 489.242 186.683C488.697 184.884 488.125 182.894 487.525 180.836C486.244 176.379 484.908 171.772 483.6 168.038C481.528 162.177 478.489 153.959 475.695 148.112L474.563 145.74C472.233 140.834 469.575 135.273 467.217 130.98C463.783 124.751 459.38 117.446 455.987 112.362C452.593 107.278 448.204 101.132 445.083 97.1519C441.199 92.2317 435.406 85.4579 430.336 79.8835C426.806 76.0128 421.613 70.8472 417.416 67.0447C412.591 62.6969 405.572 56.7954 399.507 52.0524C391.765 45.9328 380.848 39.2272 372.03 33.8572L371.308 33.4075C369.263 32.2899 366.864 30.9814 364.343 29.6458C329.847 11.9276 290.472 5.48096 249.857 10.8918H249.775H249.598L249.461 9.88323C278.677 5.74961 308.447 8.199 336.594 17.0523C333.404 15.8529 329.847 14.5853 327.053 13.6449C324.559 12.8135 319.843 11.3007 316.15 10.3057C311.652 9.09273 305.124 7.57987 299.508 6.21694C299.427 6.21694 290.867 4.32246 279.132 2.87775C262.471 0.861058 245.647 0.545961 228.922 1.93733C221.48 2.50976 212.485 3.76366 208.764 4.44512C203.163 5.45369 195.953 6.98018 191.482 7.97513C189.356 8.45215 186.426 9.2154 182.473 10.3194C179.925 11.0281 171.065 13.5631 164.196 16.18L163.133 16.5752C160.053 17.7474 156.209 19.2057 153.32 20.4323C149.586 22.027 144.734 24.2894 140.468 26.2929C136.556 28.1329 131.418 30.8315 127.683 33.0258C121.645 36.5695 113.89 41.4215 108.384 45.1014C104.432 47.8273 98.9663 51.8207 94.7548 55.2144C89.3031 59.6848 82.8292 65.2865 78.3996 69.5116C69.7367 78.0296 61.5468 87.0157 53.8668 96.4295C49.363 102.093 45.1462 107.979 41.2324 114.066C38.3294 118.455 34.4178 124.969 31.5556 130.217C28.6935 135.464 24.8227 143.246 22.0969 149.298C20.4613 152.964 18.7304 157.475 17.054 161.905C16.3453 163.772 15.6911 165.571 15.0232 167.207C12.5856 173.902 10.5199 180.727 8.83552 187.651C7.81332 191.549 6.85926 196.319 5.93246 200.939C5.50995 203.038 5.10108 205.028 4.71945 206.909C3.7654 211.379 3.1657 217.145 2.64779 222.228C2.41609 224.423 2.19802 226.549 1.96632 228.47C0.60339 239.66 0.889613 254.639 1.61197 264.943C2.76746 278.155 4.66493 291.291 7.2954 304.29C8.71428 311.309 10.6132 318.222 12.9788 324.98C13.6194 326.724 14.3418 328.687 15.0096 330.704C16.5361 335.038 18.1171 339.509 19.6299 343.148C21.9197 348.599 25.4906 356.654 28.6662 362.638C30.2745 365.691 34.4041 373.391 38.0295 379.156C40.8372 383.654 44.6807 389.147 48.0744 393.985L50.4186 397.338C55.0044 403.775 60.0417 409.878 65.4926 415.601C72.6208 423.016 83.1017 433.66 91.6337 440.488C97.358 445.068 105.699 451.228 112.855 456.148C116.807 458.874 122.218 462.05 126.988 464.817L127.002 464.871Z" fill="#D0D9F0"/>
</svg>
