<svg width="14" height="14" viewBox="0 0 14 14" fill="none" xmlns="http://www.w3.org/2000/svg">
<path d="M4.81256 7.37736L9.72896 11.7031C9.78578 11.7534 9.85471 11.7881 9.92897 11.8037C10.0032 11.8193 10.0803 11.8153 10.1525 11.7922C10.2248 11.769 10.2898 11.7274 10.3411 11.6716C10.3925 11.6157 10.4284 11.5474 10.4454 11.4735L12.5016 2.49377C12.5189 2.41643 12.5148 2.33587 12.4898 2.26067C12.4648 2.18548 12.4199 2.11848 12.3598 2.06682C12.2998 2.01517 12.2268 1.9808 12.1487 1.96738C12.0706 1.95396 11.9903 1.962 11.9165 1.99064L1.82115 5.95548C1.41646 6.11408 1.47115 6.7047 1.89771 6.7922L4.81256 7.37736Z" stroke="black" stroke-width="0.5" stroke-linecap="round" stroke-linejoin="round"/>
<path d="M4.8125 7.37737L12.2555 2.00159" stroke="black" stroke-width="0.5" stroke-linecap="round" stroke-linejoin="round"/>
<path d="M7.26797 9.53748L5.56172 11.2437C5.50085 11.3055 5.42297 11.3479 5.33799 11.3653C5.25301 11.3828 5.16477 11.3745 5.08446 11.3417C5.00416 11.3089 4.93543 11.2529 4.887 11.181C4.83858 11.109 4.81264 11.0242 4.8125 10.9375V7.37732" stroke="black" stroke-width="0.5" stroke-linecap="round" stroke-linejoin="round"/>
</svg>
