<svg width="14" height="14" viewBox="0 0 14 14" fill="none" xmlns="http://www.w3.org/2000/svg">
<path d="M7.00005 4.81245C7.00005 3.60933 8.01177 2.60855 9.2149 2.62495C9.63623 2.62982 10.0472 2.75627 10.3984 2.98911C10.7496 3.22194 11.0261 3.55125 11.1946 3.93745H13.1251L11.3586 5.70386C11.2447 7.47824 10.4592 9.1426 9.16195 10.3586C7.86472 11.5745 6.15308 12.2508 4.37505 12.25C2.62505 12.25 2.18755 11.5937 2.18755 11.5937C2.18755 11.5937 3.93755 10.9375 4.81255 9.62495C4.81255 9.62495 1.31255 7.87495 2.18755 3.06245C2.18755 3.06245 4.37505 5.24995 7.00005 5.68745V4.81245Z" stroke="black" stroke-width="0.5" stroke-linecap="round" stroke-linejoin="round"/>
</svg>
